<?xml version="1.0" encoding="utf-8"?>
<!-- Svg Vector Icons : http://www.onlinewebfonts.com/icon -->
<!DOCTYPE svg PUBLIC "-//W3C//DTD SVG 1.1//EN" "http://www.w3.org/Graphics/SVG/1.1/DTD/svg11.dtd">
<svg version="1.1" xmlns="http://www.w3.org/2000/svg" xmlns:xlink="http://www.w3.org/1999/xlink" fill='white' x="0px" y="0px" viewBox="0 20 1275 1275" enable-background="new 0 20 1275 1275" xml:space="preserve">
<metadata> Svg Vector Icons : http://www.onlinewebfonts.com/icon </metadata>
<g><g transform="translate(0.000000,511.000000) scale(0.100000,-0.100000)"><path d="M1517.4,4981.7C892.7,4865.4,411.4,4449,184.3,3827.1l-73-197.4l-8.1-3426c-8.1-3837-16.2-3634.2,186.6-4050.6c221.7-446.2,681.4-803.1,1173.5-905.8c159.5-32.5,703-40.6,3536.8-40.6c2990.7,0,3369.2,5.4,3542.3,43.3c521.9,119,932.9,438,1170.8,911.2c200.1,392.1,186.6,129.8,186.6,3939.8c0,3782.9,10.8,3539.5-181.2,3947.8c-146,308.3-454.3,619.2-751.7,767.9c-419.1,205.5-113.6,189.3-3880.3,194.7C2390.8,5016.8,1668.8,5011.4,1517.4,4981.7z M8647.9,4327.3c254.2-119,432.6-294.7,557-546.2l100-202.8l8.1-3407.1c8.1-3723.4,13.5-3545-146-3818c-83.8-143.3-321.8-367.8-467.8-443.5c-267.7-135.2-246.1-135.2-3680.2-135.2c-1930.7,0-3266.4,10.8-3363.8,27c-486.7,78.4-870.7,454.2-962.6,943.7c-16.2,94.6-27,1287.1-27,3366.5c0,3450.3,0,3428.7,135.2,3693.7c73,143.3,275.8,365,419.1,454.3c59.5,37.9,175.8,91.9,256.9,116.3c140.6,46,356.9,48.7,3569.3,43.3l3420.6-5.4L8647.9,4327.3z"/><path d="M4721.6,1547.6V398.4H3558.9H2396.2V114.5v-283.9l1157.3-5.4l1154.6-8.1l8.1-1154.6l5.4-1157.3h283.9h283.9v1162.7v1162.7h1149.2h1149.2v283.9v283.9H6438.7H5289.5v1149.2v1149.2h-283.9h-283.9V1547.6z"/></g></g>
</svg>