<?xml version="1.0" encoding="UTF-8"?>
<svg width="700pt" height="700pt" version="1.1" viewBox="0 0 700 700" xmlns="http://www.w3.org/2000/svg">
 <path d="m245 35c-27.848 0-54.555 11.062-74.246 30.754s-30.754 46.398-30.754 74.246 11.062 54.555 30.754 74.246 46.398 30.754 74.246 30.754 54.555-11.062 74.246-30.754 30.754-46.398 30.754-74.246-11.062-54.555-30.754-74.246-46.398-30.754-74.246-30.754zm52.5 122.5h-105v-35h105zm-70 105h35v210c-1.2188 19.703-10.184 38.125-24.938 51.242-14.754 13.113-34.102 19.859-53.812 18.758-19.711 1.1016-39.059-5.6445-53.812-18.758-14.754-13.117-23.719-31.539-24.938-51.242 1.2188-19.703 10.184-38.125 24.938-51.242 14.754-13.113 34.102-19.859 53.812-18.758 15.391-0.054688 30.508 4.0547 43.75 11.898zm350-213.85v371.35c-1.2188 19.703-10.184 38.125-24.938 51.242-14.754 13.113-34.102 19.859-53.812 18.758-19.711 1.1016-39.059-5.6445-53.812-18.758-14.754-13.117-23.719-31.539-24.938-51.242 1.2188-19.703 10.184-38.125 24.938-51.242 14.754-13.113 34.102-19.859 53.812-18.758 15.391-0.054688 30.508 4.0547 43.75 11.898v-270.55l-171.15 35-7-35z"/>
</svg>
