<?xml version="1.0"?><svg fill="#ff8800" xmlns="http://www.w3.org/2000/svg"  viewBox="0 0 30 30" width="70px" height="70px">    <path d="M 18.398438 8.9726562 C 17.565438 8.9726562 16.755109 9.1351094 16.037109 9.4121094 C 15.759109 9.5201094 15.686594 9.6316563 15.683594 9.8476562 L 15.683594 21.558594 C 15.686594 21.784594 15.860078 21.959422 16.080078 21.982422 C 16.089078 21.983422 26.308594 21.982422 26.308594 21.982422 C 28.346594 21.982422 29.998047 20.348547 29.998047 18.310547 C 29.999047 16.271547 28.348547 14.619141 26.310547 14.619141 C 25.805547 14.619141 25.321812 14.72125 24.882812 14.90625 C 24.589813 11.58125 21.799437 8.9726562 18.398438 8.9726562 z M 14.929688 9.8359375 C 14.832688 9.8359375 14.742828 9.8716875 14.673828 9.9296875 C 14.583828 10.003687 14.525438 10.115234 14.523438 10.240234 L 14.523438 10.283203 L 14.357422 18.554688 L 14.441406 20.082031 L 14.523438 21.570312 C 14.526438 21.790312 14.709641 21.972656 14.931641 21.972656 C 15.150332 21.972656 15.332785 21.793449 15.337891 21.572266 L 15.337891 21.568359 L 15.517578 18.554688 L 15.337891 10.242188 C 15.333891 10.094187 15.253719 9.9655312 15.136719 9.8945312 C 15.075719 9.8575312 15.004687 9.8359375 14.929688 9.8359375 z M 13.669922 10.552734 C 13.594922 10.552734 13.524844 10.574281 13.464844 10.613281 C 13.360844 10.680281 13.291062 10.798641 13.289062 10.931641 L 13.289062 11.003906 L 13.146484 18.550781 C 13.146484 18.555781 13.289062 21.615234 13.289062 21.615234 C 13.289062 21.620234 13.289062 21.623906 13.289062 21.628906 C 13.294063 21.713906 13.326906 21.791516 13.378906 21.853516 C 13.448906 21.937516 13.554875 21.992187 13.671875 21.992188 C 13.774875 21.992188 13.8695 21.950859 13.9375 21.880859 C 14.0055 21.812859 14.049781 21.716328 14.050781 21.611328 L 14.066406 21.308594 L 14.210938 18.552734 L 14.050781 10.929688 C 14.047781 10.800688 13.980859 10.685188 13.880859 10.617188 C 13.819859 10.576187 13.746922 10.552734 13.669922 10.552734 z M 9.9023438 11.427734 C 9.7363437 11.427734 9.6026562 11.561469 9.5976562 11.730469 L 9.4082031 18.550781 L 9.5976562 21.681641 C 9.6026563 21.849641 9.7363438 21.982422 9.9023438 21.982422 C 10.067344 21.982422 10.199078 21.849688 10.205078 21.679688 L 10.419922 18.550781 L 10.205078 11.730469 C 10.199078 11.560469 10.067344 11.427734 9.9023438 11.427734 z M 11.148438 11.576172 C 10.967438 11.576172 10.823359 11.720297 10.818359 11.904297 L 10.644531 18.552734 L 10.818359 21.652344 C 10.822359 21.834344 10.966484 21.978516 11.146484 21.978516 C 11.325836 21.978516 11.470584 21.833439 11.476562 21.650391 L 11.671875 18.550781 L 11.476562 11.902344 C 11.472562 11.719344 11.328437 11.576172 11.148438 11.576172 z M 8.6640625 11.675781 C 8.5130625 11.675781 8.3917188 11.796172 8.3867188 11.951172 L 8.1835938 18.550781 L 8.3867188 21.701172 C 8.3927188 21.855172 8.5130625 21.976562 8.6640625 21.976562 C 8.8134341 21.976562 8.9364183 21.857191 8.9433594 21.703125 L 8.9433594 21.701172 L 9.1738281 18.552734 L 8.9433594 11.951172 C 8.9373594 11.796172 8.8140625 11.675781 8.6640625 11.675781 z M 12.402344 11.792969 C 12.207344 11.792969 12.051828 11.949484 12.048828 12.146484 L 11.890625 18.550781 L 12.048828 21.632812 C 12.052828 21.828813 12.206344 21.984375 12.402344 21.984375 C 12.596029 21.984375 12.751809 21.83085 12.757812 21.634766 L 12.757812 21.630859 L 12.935547 18.552734 L 12.757812 12.146484 C 12.754812 11.948484 12.597344 11.792969 12.402344 11.792969 z M 7.4199219 12.226562 C 7.2839219 12.226562 7.1720156 12.336562 7.1660156 12.476562 L 6.9472656 18.566406 L 7.1660156 21.751953 C 7.1720156 21.890953 7.2839219 22 7.4199219 22 C 7.5543002 22 7.6659189 21.889079 7.671875 21.75 L 7.9199219 18.568359 L 7.671875 12.476562 C 7.665875 12.335563 7.5549219 12.226562 7.4199219 12.226562 z M 6.2207031 13.367188 C 6.0997031 13.367188 6.0001406 13.464797 5.9941406 13.591797 L 5.7597656 18.548828 L 5.9941406 21.751953 C 6.0011406 21.876953 6.0997031 21.976563 6.2207031 21.976562 C 6.3407031 21.976562 6.4402656 21.877953 6.4472656 21.751953 L 6.7128906 18.548828 L 6.4472656 13.591797 C 6.4402656 13.466797 6.3407031 13.367188 6.2207031 13.367188 z M 3.8164062 15.091797 C 3.7234063 15.091797 3.647625 15.164672 3.640625 15.263672 L 3.3769531 18.548828 L 3.640625 21.724609 C 3.648625 21.822609 3.7234062 21.898438 3.8164062 21.898438 C 3.9084063 21.898438 3.9832344 21.823609 3.9902344 21.724609 L 4.2929688 18.548828 L 3.9902344 15.263672 C 3.9822344 15.165672 3.9084062 15.091797 3.8164062 15.091797 z M 2.6289062 15.203125 C 2.5489062 15.203125 2.4865156 15.264609 2.4785156 15.349609 L 2.1972656 18.546875 L 2.4785156 21.626953 C 2.4855156 21.711953 2.5499062 21.773437 2.6289062 21.773438 C 2.7069062 21.773438 2.7683438 21.711953 2.7773438 21.626953 L 3.0957031 18.546875 L 2.7773438 15.349609 C 2.7673437 15.265609 2.7069062 15.203125 2.6289062 15.203125 z M 5.0136719 15.302734 C 4.9056719 15.302734 4.8175469 15.387953 4.8105469 15.501953 L 4.5625 18.548828 L 4.8105469 21.751953 C 4.8175469 21.863953 4.9056719 21.949219 5.0136719 21.949219 C 5.1206719 21.949219 5.2068437 21.865953 5.2148438 21.751953 L 5.4980469 18.548828 L 5.2148438 15.5 C 5.2078438 15.387 5.1206719 15.302734 5.0136719 15.302734 z M 1.4472656 15.732422 C 1.3832656 15.732422 1.3312656 15.783516 1.3222656 15.853516 L 1.0273438 18.546875 L 1.3222656 21.181641 C 1.3302656 21.251641 1.3832656 21.302734 1.4472656 21.302734 C 1.5102656 21.302734 1.5612656 21.252641 1.5722656 21.181641 L 1.9082031 18.546875 L 1.5722656 15.853516 C 1.5622656 15.782516 1.5112656 15.732422 1.4472656 15.732422 z M 0.33984375 16.763672 C 0.27684375 16.763672 0.22675 16.812859 0.21875 16.880859 L 0 18.546875 L 0.21875 20.185547 C 0.22675 20.254547 0.27784375 20.302734 0.33984375 20.302734 C 0.40084375 20.302734 0.44898438 20.253547 0.45898438 20.185547 L 0.71875 18.546875 L 0.45898438 16.880859 C 0.44998438 16.812859 0.40084375 16.763672 0.33984375 16.763672 z"/></svg>